<?xml version="1.0" encoding="UTF-8" standalone="no"?>
<svg
   xmlns:dc="http://purl.org/dc/elements/1.1/"
   xmlns:cc="http://creativecommons.org/ns#"
   xmlns:rdf="http://www.w3.org/1999/02/22-rdf-syntax-ns#"
   xmlns:svg="http://www.w3.org/2000/svg"
   xmlns="http://www.w3.org/2000/svg"
   xmlns:sodipodi="http://sodipodi.sourceforge.net/DTD/sodipodi-0.dtd"
   xmlns:inkscape="http://www.inkscape.org/namespaces/inkscape"
   width="24in"
   height="18in"
   viewBox="0 0 440 330"
   version="1.1"
   id="svg8"
   sodipodi:docname="base.svg"
   inkscape:version="0.92.4 (5da689c313, 2019-01-14)">
  <sodipodi:namedview
     pagecolor="#ffffff"
     bordercolor="#666666"
     borderopacity="1"
     objecttolerance="10"
     gridtolerance="10"
     guidetolerance="10"
     inkscape:pageopacity="0"
     inkscape:pageshadow="2"
     inkscape:window-width="1920"
     inkscape:window-height="1017"
     id="namedview8"
     showgrid="false"
     inkscape:zoom="0.49917265"
     inkscape:cx="1460.131"
     inkscape:cy="933.98767"
     inkscape:window-x="-8"
     inkscape:window-y="-8"
     inkscape:window-maximized="1"
     inkscape:current-layer="svg8"
     inkscape:document-units="in" />
  <defs
     id="defs2" />
  <metadata
     id="metadata5">
    <rdf:RDF>
      <cc:Work
         rdf:about="">
        <dc:format>image/svg+xml</dc:format>
        <dc:type
           rdf:resource="http://purl.org/dc/dcmitype/StillImage" />
        <dc:title />
      </cc:Work>
    </rdf:RDF>
  </metadata>
  <g
     id="overall"
     transform="matrix(1,0,0,-1,-35.579074,318.36372)">
    <g
       id="peg0"
       transform="translate(202.25,24.27)">
      <circle
         id="pegHole0"
         cx="0"
         cy="0"
         r="2.18"
         style="fill:none;stroke:#000000;stroke-width:0.0127" />
    </g>
    <g
       id="peg1"
       transform="translate(252.80003,178.49636)">
      <circle
         id="pegHole1"
         cx="0"
         cy="0"
         r="2.18"
         style="fill:none;stroke:#000000;stroke-width:0.0127" />
    </g>
    <g
       id="peg2"
       transform="translate(234.15296,230.00086)">
      <circle
         id="pegHole2"
         cx="0"
         cy="0"
         r="2.18"
         style="fill:none;stroke:#000000;stroke-width:0.0127" />
    </g>
    <g
       id="peg3"
       transform="translate(190.03144,210.22015)">
      <circle
         id="pegHole3"
         cx="0"
         cy="0"
         r="2.18"
         style="fill:none;stroke:#000000;stroke-width:0.0127" />
      <text
         x="4.2614431"
         y="5.8653731"
         font-size="4"
         alignment-baseline="middle"
         transform="matrix(1,0,0,-1,0,-1.5)"
         id="text12"
         style="font-weight:bold;font-size:4px;text-anchor:middle">E</text>
      <text
         x="-4.2614431"
         y="5.8653731"
         font-size="4"
         alignment-baseline="middle"
         transform="matrix(1,0,0,-1,0,-1.5)"
         id="text14"
         style="font-weight:bold;font-size:4px;text-anchor:middle">H</text>
      <text
         x="-6.8951597"
         y="-2.2403731"
         font-size="4"
         alignment-baseline="middle"
         transform="matrix(1,0,0,-1,0,-1.5)"
         id="text16"
         style="font-weight:bold;font-size:4px;text-anchor:middle">B</text>
      <text
         x="4.4393447e-16"
         y="-7.25"
         font-size="4"
         alignment-baseline="middle"
         transform="matrix(1,0,0,-1,0,-1.5)"
         id="text18"
         style="font-weight:bold;font-size:4px;text-anchor:middle">O</text>
      <text
         x="6.8951597"
         y="-2.2403731"
         font-size="4"
         alignment-baseline="middle"
         transform="matrix(1,0,0,-1,0,-1.5)"
         id="text20"
         style="font-weight:bold;font-size:4px;text-anchor:middle">P</text>
    </g>
    <g
       id="peg4"
       transform="translate(259.99288,209.38628)">
      <circle
         id="pegHole4"
         cx="0"
         cy="0"
         r="2.18"
         style="fill:none;stroke:#000000;stroke-width:0.0127" />
      <text
         x="1.7969775"
         y="7.0237718"
         font-size="4"
         alignment-baseline="middle"
         transform="matrix(1,0,0,-1,0,-1.5)"
         id="text24"
         style="font-weight:bold;font-size:4px;text-anchor:middle">N</text>
      <text
         x="-6.1247072"
         y="3.879492"
         font-size="4"
         alignment-baseline="middle"
         transform="matrix(1,0,0,-1,0,-1.5)"
         id="text26"
         style="font-weight:bold;font-size:4px;text-anchor:middle">R</text>
      <text
         x="-5.5822549"
         y="-4.6261139"
         font-size="4"
         alignment-baseline="middle"
         transform="matrix(1,0,0,-1,0,-1.5)"
         id="text28"
         style="font-weight:bold;font-size:4px;text-anchor:middle">W</text>
      <text
         x="2.674684"
         y="-6.7385879"
         font-size="4"
         alignment-baseline="middle"
         transform="matrix(1,0,0,-1,0,-1.5)"
         id="text30"
         style="font-weight:bold;font-size:4px;text-anchor:middle">D</text>
      <text
         x="7.2353005"
         y="0.46143767"
         font-size="4"
         alignment-baseline="middle"
         transform="matrix(1,0,0,-1,0,-1.5)"
         id="text32"
         style="font-weight:bold;font-size:4px;text-anchor:middle">F</text>
    </g>
    <g
       id="peg5"
       transform="translate(289.57302,123.56878)">
      <circle
         id="pegHole5"
         cx="0"
         cy="0"
         r="2.18"
         style="fill:none;stroke:#000000;stroke-width:0.0127" />
    </g>
    <g
       id="peg6"
       transform="translate(329.27295,162.0697)">
      <circle
         id="pegHole6"
         cx="0"
         cy="0"
         r="2.18"
         style="fill:none;stroke:#000000;stroke-width:0.0127" />
    </g>
    <g
       id="peg7"
       transform="translate(311.31167,193.04064)">
      <circle
         id="pegHole7"
         cx="0"
         cy="0"
         r="2.18"
         style="fill:none;stroke:#000000;stroke-width:0.0127" />
      <text
         x="5.0363874"
         y="5.2151031"
         font-size="4"
         alignment-baseline="middle"
         transform="matrix(1,0,0,-1,0,-1.5)"
         id="text40"
         style="font-weight:bold;font-size:4px;text-anchor:middle">S</text>
      <text
         x="-3.4035287"
         y="6.4014444"
         font-size="4"
         alignment-baseline="middle"
         transform="matrix(1,0,0,-1,0,-1.5)"
         id="text42"
         style="font-weight:bold;font-size:4px;text-anchor:middle">A</text>
      <text
         x="-7.139884"
         y="-1.2587929"
         font-size="4"
         alignment-baseline="middle"
         transform="matrix(1,0,0,-1,0,-1.5)"
         id="text44"
         style="font-weight:bold;font-size:4px;text-anchor:middle">A</text>
      <text
         x="-1.0091622"
         y="-7.1794214"
         font-size="4"
         alignment-baseline="middle"
         transform="matrix(1,0,0,-1,0,-1.5)"
         id="text46"
         style="font-weight:bold;font-size:4px;text-anchor:middle">U</text>
      <text
         x="6.5161872"
         y="-3.1783335"
         font-size="4"
         alignment-baseline="middle"
         transform="matrix(1,0,0,-1,0,-1.5)"
         id="text48"
         style="font-weight:bold;font-size:4px;text-anchor:middle">R</text>
    </g>
    <g
       id="peg8"
       transform="translate(207.27802,265.86937)">
      <circle
         id="pegHole8"
         cx="0"
         cy="0"
         r="2.18"
         style="fill:none;stroke:#000000;stroke-width:0.0127" />
      <text
         x="1.5420314"
         y="7.0841117"
         font-size="4"
         alignment-baseline="middle"
         transform="matrix(1,0,0,-1,0,-1.5)"
         id="text52"
         style="font-weight:bold;font-size:4px;text-anchor:middle">C</text>
      <text
         x="-6.2608767"
         y="3.6556699"
         font-size="4"
         alignment-baseline="middle"
         transform="matrix(1,0,0,-1,0,-1.5)"
         id="text54"
         style="font-weight:bold;font-size:4px;text-anchor:middle">A</text>
      <text
         x="-5.4114661"
         y="-4.8247833"
         font-size="4"
         alignment-baseline="middle"
         transform="matrix(1,0,0,-1,0,-1.5)"
         id="text56"
         style="font-weight:bold;font-size:4px;text-anchor:middle">Y</text>
      <text
         x="2.9164069"
         y="-6.6375504"
         font-size="4"
         alignment-baseline="middle"
         transform="matrix(1,0,0,-1,0,-1.5)"
         id="text58"
         style="font-weight:bold;font-size:4px;text-anchor:middle">M</text>
      <text
         x="7.2139044"
         y="0.72255188"
         font-size="4"
         alignment-baseline="middle"
         transform="matrix(1,0,0,-1,0,-1.5)"
         id="text60"
         style="font-weight:bold;font-size:4px;text-anchor:middle">E</text>
    </g>
    <g
       id="peg9"
       transform="translate(249.17575,276.15413)">
      <circle
         id="pegHole9"
         cx="0"
         cy="0"
         r="2.18"
         style="fill:none;stroke:#000000;stroke-width:0.0127" />
      <text
         x="6.6856441"
         y="2.8044002"
         font-size="4"
         alignment-baseline="middle"
         transform="matrix(1,0,0,-1,0,-1.5)"
         id="text64"
         style="font-weight:bold;font-size:4px;text-anchor:middle">O</text>
      <text
         x="-0.60116535"
         y="7.2250328"
         font-size="4"
         alignment-baseline="middle"
         transform="matrix(1,0,0,-1,0,-1.5)"
         id="text66"
         style="font-weight:bold;font-size:4px;text-anchor:middle">E</text>
      <text
         x="-7.0571847"
         y="1.6609157"
         font-size="4"
         alignment-baseline="middle"
         transform="matrix(1,0,0,-1,0,-1.5)"
         id="text68"
         style="font-weight:bold;font-size:4px;text-anchor:middle">T</text>
      <text
         x="-3.7604148"
         y="-6.1985307"
         font-size="4"
         alignment-baseline="middle"
         transform="matrix(1,0,0,-1,0,-1.5)"
         id="text70"
         style="font-weight:bold;font-size:4px;text-anchor:middle">N</text>
      <text
         x="4.7331209"
         y="-5.4918184"
         font-size="4"
         alignment-baseline="middle"
         transform="matrix(1,0,0,-1,0,-1.5)"
         id="text72"
         style="font-weight:bold;font-size:4px;text-anchor:middle">A</text>
    </g>
    <g
       id="peg10"
       transform="translate(270.89871,246.10399)">
      <circle
         id="pegHole10"
         cx="0"
         cy="0"
         r="2.18"
         style="fill:none;stroke:#000000;stroke-width:0.0127" />
    </g>
    <g
       id="peg11"
       transform="translate(224.82428,78.561468)">
      <circle
         id="pegHole11"
         cx="0"
         cy="0"
         r="2.18"
         style="fill:none;stroke:#000000;stroke-width:0.0127" />
    </g>
    <g
       id="peg12"
       transform="translate(252.31413,136.46783)">
      <circle
         id="pegHole12"
         cx="0"
         cy="0"
         r="2.18"
         style="fill:none;stroke:#000000;stroke-width:0.0127" />
      <text
         x="7.2485671"
         y="0.14414471"
         font-size="4"
         alignment-baseline="middle"
         transform="matrix(1,0,0,-1,0,-1.5)"
         id="text80"
         style="font-weight:bold;font-size:4px;text-anchor:middle">T</text>
      <text
         x="2.1028407"
         y="6.9383402"
         font-size="4"
         alignment-baseline="middle"
         transform="matrix(1,0,0,-1,0,-1.5)"
         id="text82"
         style="font-weight:bold;font-size:4px;text-anchor:middle">N</text>
      <text
         x="-5.9489398"
         y="4.1439853"
         font-size="4"
         alignment-baseline="middle"
         transform="matrix(1,0,0,-1,0,-1.5)"
         id="text84"
         style="font-weight:bold;font-size:4px;text-anchor:middle">S</text>
      <text
         x="-5.7794876"
         y="-4.3772163"
         font-size="4"
         alignment-baseline="middle"
         transform="matrix(1,0,0,-1,0,-1.5)"
         id="text86"
         style="font-weight:bold;font-size:4px;text-anchor:middle">L</text>
      <text
         x="2.3770201"
         y="-6.8492537"
         font-size="4"
         alignment-baseline="middle"
         transform="matrix(1,0,0,-1,0,-1.5)"
         id="text88"
         style="font-weight:bold;font-size:4px;text-anchor:middle">E</text>
    </g>
    <g
       id="peg13"
       transform="translate(210.37846,121.05541)">
      <circle
         id="pegHole13"
         cx="0"
         cy="0"
         r="2.18"
         style="fill:none;stroke:#000000;stroke-width:0.0127" />
      <text
         x="0.90124601"
         y="7.1937652"
         font-size="4"
         alignment-baseline="middle"
         transform="matrix(1,0,0,-1,0,-1.5)"
         id="text92"
         style="font-weight:bold;font-size:4px;text-anchor:middle">L</text>
      <text
         x="-6.5631766"
         y="3.0801315"
         font-size="4"
         alignment-baseline="middle"
         transform="matrix(1,0,0,-1,0,-1.5)"
         id="text94"
         style="font-weight:bold;font-size:4px;text-anchor:middle">E</text>
      <text
         x="-4.9575124"
         y="-5.2901392"
         font-size="4"
         alignment-baseline="middle"
         transform="matrix(1,0,0,-1,0,-1.5)"
         id="text96"
         style="font-weight:bold;font-size:4px;text-anchor:middle">C</text>
      <text
         x="3.4992657"
         y="-6.3496175"
         font-size="4"
         alignment-baseline="middle"
         transform="matrix(1,0,0,-1,0,-1.5)"
         id="text98"
         style="font-weight:bold;font-size:4px;text-anchor:middle">D</text>
      <text
         x="7.1201773"
         y="1.3658597"
         font-size="4"
         alignment-baseline="middle"
         transform="matrix(1,0,0,-1,0,-1.5)"
         id="text100"
         style="font-weight:bold;font-size:4px;text-anchor:middle">M</text>
    </g>
    <g
       id="peg14"
       transform="translate(143.43124,196.12048)">
      <circle
         id="pegHole14"
         cx="0"
         cy="0"
         r="2.18"
         style="fill:none;stroke:#000000;stroke-width:0.0127" />
    </g>
    <g
       id="peg15"
       transform="translate(131.09339,250.01427)">
      <circle
         id="pegHole15"
         cx="0"
         cy="0"
         r="2.18"
         style="fill:none;stroke:#000000;stroke-width:0.0127" />
      <text
         x="-1.7185099"
         y="7.0433817"
         font-size="4"
         alignment-baseline="middle"
         transform="matrix(1,0,0,-1,0,-1.5)"
         id="text106"
         style="font-weight:bold;font-size:4px;text-anchor:middle">T</text>
      <text
         x="-7.2297025"
         y="0.54212451"
         font-size="4"
         alignment-baseline="middle"
         transform="matrix(1,0,0,-1,0,-1.5)"
         id="text108"
         style="font-weight:bold;font-size:4px;text-anchor:middle">N</text>
      <text
         x="-2.749692"
         y="-6.7083302"
         font-size="4"
         alignment-baseline="middle"
         transform="matrix(1,0,0,-1,0,-1.5)"
         id="text110"
         style="font-weight:bold;font-size:4px;text-anchor:middle">E</text>
      <text
         x="5.5302997"
         y="-4.6881008"
         font-size="4"
         alignment-baseline="middle"
         transform="matrix(1,0,0,-1,0,-1.5)"
         id="text112"
         style="font-weight:bold;font-size:4px;text-anchor:middle">O</text>
      <text
         x="6.1676049"
         y="3.8109248"
         font-size="4"
         alignment-baseline="middle"
         transform="matrix(1,0,0,-1,0,-1.5)"
         id="text114"
         style="font-weight:bold;font-size:4px;text-anchor:middle">S</text>
    </g>
    <g
       id="peg16"
       transform="translate(170.06819,243.55553)">
      <circle
         id="pegHole16"
         cx="0"
         cy="0"
         r="2.18"
         style="fill:none;stroke:#000000;stroke-width:0.0127" />
      <text
         x="5.6399546"
         y="4.5555911"
         font-size="4"
         alignment-baseline="middle"
         transform="matrix(1,0,0,-1,0,-1.5)"
         id="text118"
         style="font-weight:bold;font-size:4px;text-anchor:middle">H</text>
      <text
         x="-2.589783"
         y="6.7716708"
         font-size="4"
         alignment-baseline="middle"
         transform="matrix(1,0,0,-1,0,-1.5)"
         id="text120"
         style="font-weight:bold;font-size:4px;text-anchor:middle">N</text>
      <text
         x="-7.2405286"
         y="-0.37046856"
         font-size="4"
         alignment-baseline="middle"
         transform="matrix(1,0,0,-1,0,-1.5)"
         id="text122"
         style="font-weight:bold;font-size:4px;text-anchor:middle">T</text>
      <text
         x="-1.8851098"
         y="-7.0006328"
         font-size="4"
         alignment-baseline="middle"
         transform="matrix(1,0,0,-1,0,-1.5)"
         id="text124"
         style="font-weight:bold;font-size:4px;text-anchor:middle">A</text>
      <text
         x="6.0754666"
         y="-3.9561605"
         font-size="4"
         alignment-baseline="middle"
         transform="matrix(1,0,0,-1,0,-1.5)"
         id="text126"
         style="font-weight:bold;font-size:4px;text-anchor:middle">D</text>
    </g>
    <g
       id="peg17"
       transform="translate(144.40244,78.961171)">
      <circle
         id="pegHole17"
         cx="0"
         cy="0"
         r="2.18"
         style="fill:none;stroke:#000000;stroke-width:0.0127" />
      <text
         x="-5.126524"
         y="5.126524"
         font-size="4"
         alignment-baseline="middle"
         transform="matrix(1,0,0,-1,0,-1.5)"
         id="text130"
         style="font-weight:bold;font-size:4px;text-anchor:middle">T</text>
      <text
         x="-6.4597974"
         y="-3.2914312"
         font-size="4"
         alignment-baseline="middle"
         transform="matrix(1,0,0,-1,0,-1.5)"
         id="text132"
         style="font-weight:bold;font-size:4px;text-anchor:middle">R</text>
      <text
         x="1.1341499"
         y="-7.1607404"
         font-size="4"
         alignment-baseline="middle"
         transform="matrix(1,0,0,-1,0,-1.5)"
         id="text134"
         style="font-weight:bold;font-size:4px;text-anchor:middle">S</text>
      <text
         x="7.1607404"
         y="-1.1341499"
         font-size="4"
         alignment-baseline="middle"
         transform="matrix(1,0,0,-1,0,-1.5)"
         id="text136"
         style="font-weight:bold;font-size:4px;text-anchor:middle">I</text>
      <text
         x="3.2914312"
         y="6.4597974"
         font-size="4"
         alignment-baseline="middle"
         transform="matrix(1,0,0,-1,0,-1.5)"
         id="text138"
         style="font-weight:bold;font-size:4px;text-anchor:middle">O</text>
    </g>
    <g
       id="peg18"
       transform="translate(166.47783,154.41416)">
      <circle
         id="pegHole18"
         cx="0"
         cy="0"
         r="2.18"
         style="fill:none;stroke:#000000;stroke-width:0.0127" />
    </g>
    <g
       id="peg19"
       transform="translate(90.456385,106.04476)">
      <circle
         id="pegHole19"
         cx="0"
         cy="0"
         r="2.18"
         style="fill:none;stroke:#000000;stroke-width:0.0127" />
      <text
         x="6.1212821"
         y="3.8848948"
         font-size="4"
         alignment-baseline="middle"
         transform="matrix(1,0,0,-1,0,-1.5)"
         id="text144"
         style="font-weight:bold;font-size:4px;text-anchor:middle">I</text>
      <text
         x="-1.8031744"
         y="7.0221834"
         font-size="4"
         alignment-baseline="middle"
         transform="matrix(1,0,0,-1,0,-1.5)"
         id="text146"
         style="font-weight:bold;font-size:4px;text-anchor:middle">I</text>
      <text
         x="-7.2357049"
         y="0.45505333"
         font-size="4"
         alignment-baseline="middle"
         transform="matrix(1,0,0,-1,0,-1.5)"
         id="text148"
         style="font-weight:bold;font-size:4px;text-anchor:middle">T</text>
      <text
         x="-2.6687372"
         y="-6.7409453"
         font-size="4"
         alignment-baseline="middle"
         transform="matrix(1,0,0,-1,0,-1.5)"
         id="text150"
         style="font-weight:bold;font-size:4px;text-anchor:middle">C</text>
      <text
         x="5.5863347"
         y="-4.6211867"
         font-size="4"
         alignment-baseline="middle"
         transform="matrix(1,0,0,-1,0,-1.5)"
         id="text152"
         style="font-weight:bold;font-size:4px;text-anchor:middle">C</text>
    </g>
    <g
       id="peg20"
       transform="translate(105.82243,148.9209)">
      <circle
         id="pegHole20"
         cx="0"
         cy="0"
         r="2.18"
         style="fill:none;stroke:#000000;stroke-width:0.0127" />
      <text
         x="4.862164"
         y="-5.3779049"
         font-size="4"
         alignment-baseline="middle"
         transform="matrix(1,0,0,-1,0,-1.5)"
         id="text156"
         style="font-weight:bold;font-size:4px;text-anchor:middle">O</text>
      <text
         x="6.6171827"
         y="2.9623289"
         font-size="4"
         alignment-baseline="middle"
         transform="matrix(1,0,0,-1,0,-1.5)"
         id="text158"
         style="font-weight:bold;font-size:4px;text-anchor:middle">T</text>
      <text
         x="-0.7725203"
         y="7.208725"
         font-size="4"
         alignment-baseline="middle"
         transform="matrix(1,0,0,-1,0,-1.5)"
         id="text160"
         style="font-weight:bold;font-size:4px;text-anchor:middle">B</text>
      <text
         x="-7.0946264"
         y="1.492908"
         font-size="4"
         alignment-baseline="middle"
         transform="matrix(1,0,0,-1,0,-1.5)"
         id="text162"
         style="font-weight:bold;font-size:4px;text-anchor:middle">K</text>
      <text
         x="-3.6122"
         y="-6.286057"
         font-size="4"
         alignment-baseline="middle"
         transform="matrix(1,0,0,-1,0,-1.5)"
         id="text164"
         style="font-weight:bold;font-size:4px;text-anchor:middle">R</text>
    </g>
    <g
       id="peg21"
       transform="translate(231.20756,199.80667)">
      <circle
         id="pegHole21"
         cx="0"
         cy="0"
         r="2.18"
         style="fill:none;stroke:#000000;stroke-width:0.0127" />
    </g>
    <g
       id="peg22"
       transform="translate(286.97917,165.96199)">
      <circle
         id="pegHole22"
         cx="0"
         cy="0"
         r="2.18"
         style="fill:none;stroke:#000000;stroke-width:0.0127" />
    </g>
    <g
       id="peg23"
       transform="translate(241.39445,253.16535)">
      <circle
         id="pegHole23"
         cx="0"
         cy="0"
         r="2.18"
         style="fill:none;stroke:#000000;stroke-width:0.0127" />
    </g>
    <g
       id="peg24"
       transform="translate(254.16682,100.11)">
      <circle
         id="pegHole24"
         cx="0"
         cy="0"
         r="2.18"
         style="fill:none;stroke:#000000;stroke-width:0.0127" />
      <text
         x="5.126524"
         y="5.126524"
         font-size="4"
         alignment-baseline="middle"
         transform="matrix(1,0,0,-1,0,-1.5)"
         id="text174"
         style="font-weight:bold;font-size:4px;text-anchor:middle">E</text>
      <text
         x="6.4597974"
         y="-3.2914312"
         font-size="4"
         alignment-baseline="middle"
         transform="matrix(1,0,0,-1,0,-1.5)"
         id="text176"
         style="font-weight:bold;font-size:4px;text-anchor:middle">D</text>
      <text
         x="-1.1341499"
         y="-7.1607404"
         font-size="4"
         alignment-baseline="middle"
         transform="matrix(1,0,0,-1,0,-1.5)"
         id="text178"
         style="font-weight:bold;font-size:4px;text-anchor:middle">N</text>
      <text
         x="-7.1607404"
         y="-1.1341499"
         font-size="4"
         alignment-baseline="middle"
         transform="matrix(1,0,0,-1,0,-1.5)"
         id="text180"
         style="font-weight:bold;font-size:4px;text-anchor:middle">D</text>
      <text
         x="-3.2914312"
         y="6.4597974"
         font-size="4"
         alignment-baseline="middle"
         transform="matrix(1,0,0,-1,0,-1.5)"
         id="text182"
         style="font-weight:bold;font-size:4px;text-anchor:middle">U</text>
    </g>
    <g
       id="peg25"
       transform="translate(156.19169,223.64383)">
      <circle
         id="pegHole25"
         cx="0"
         cy="0"
         r="2.18"
         style="fill:none;stroke:#000000;stroke-width:0.0127" />
    </g>
    <g
       id="peg26"
       transform="translate(134.48632,126.47751)">
      <circle
         id="pegHole26"
         cx="0"
         cy="0"
         r="2.18"
         style="fill:none;stroke:#000000;stroke-width:0.0127" />
    </g>
    <g
       id="peg27"
       transform="translate(190.95478,65.213029)">
      <circle
         id="pegHole27"
         cx="0"
         cy="0"
         r="2.18"
         style="fill:none;stroke:#000000;stroke-width:0.0127" />
      <text
         x="4.4393447e-16"
         y="-7.25"
         font-size="4"
         alignment-baseline="middle"
         transform="matrix(1,0,0,-1,0,-1.5)"
         id="text190"
         style="font-weight:bold;font-size:4px;text-anchor:middle">L</text>
      <text
         x="-6.8951597"
         y="-2.2403731"
         font-size="4"
         alignment-baseline="middle"
         transform="matrix(1,0,0,-1,0,-1.5)"
         id="text192"
         style="font-weight:bold;font-size:4px;text-anchor:middle">S</text>
      <text
         x="-4.2614431"
         y="5.8653731"
         font-size="4"
         alignment-baseline="middle"
         transform="matrix(1,0,0,-1,0,-1.5)"
         id="text194"
         style="font-weight:bold;font-size:4px;text-anchor:middle">H</text>
      <text
         x="4.2614431"
         y="5.8653731"
         font-size="4"
         alignment-baseline="middle"
         transform="matrix(1,0,0,-1,0,-1.5)"
         id="text196"
         style="font-weight:bold;font-size:4px;text-anchor:middle">E</text>
      <text
         x="6.8951597"
         y="-2.2403731"
         font-size="4"
         alignment-baseline="middle"
         transform="matrix(1,0,0,-1,0,-1.5)"
         id="text198"
         style="font-weight:bold;font-size:4px;text-anchor:middle">C</text>
    </g>
    <g
       id="peg28"
       transform="translate(172.1492,28.05232)">
      <circle
         id="pegHole28"
         cx="0"
         cy="0"
         r="2.18"
         style="fill:none;stroke:#000000;stroke-width:0.0127" />
      <text
         x="1.4104708"
         y="-7.1114745"
         font-size="4"
         alignment-baseline="middle"
         transform="matrix(1,0,0,-1,0,-1.5)"
         id="text202"
         style="font-weight:bold;font-size:4px;text-anchor:middle">A</text>
      <text
         x="-6.3275547"
         y="-3.5390041"
         font-size="4"
         alignment-baseline="middle"
         transform="matrix(1,0,0,-1,0,-1.5)"
         id="text204"
         style="font-weight:bold;font-size:4px;text-anchor:middle">P</text>
      <text
         x="-5.321115"
         y="4.9242496"
         font-size="4"
         alignment-baseline="middle"
         transform="matrix(1,0,0,-1,0,-1.5)"
         id="text206"
         style="font-weight:bold;font-size:4px;text-anchor:middle">C</text>
      <text
         x="3.0389249"
         y="6.5823579"
         font-size="4"
         alignment-baseline="middle"
         transform="matrix(1,0,0,-1,0,-1.5)"
         id="text208"
         style="font-weight:bold;font-size:4px;text-anchor:middle">L</text>
      <text
         x="7.1992736"
         y="-0.85612899"
         font-size="4"
         alignment-baseline="middle"
         transform="matrix(1,0,0,-1,0,-1.5)"
         id="text210"
         style="font-weight:bold;font-size:4px;text-anchor:middle">A</text>
    </g>
    <circle
       id="rimCircle"
       cx="202.25"
       cy="151.6875"
       r="155"
       style="fill:none;stroke:#000000;stroke-width:0.0127" />
  </g>
</svg>
