<?xml version="1.0" encoding="UTF-8" standalone="no"?>
<svg
   xmlns:dc="http://purl.org/dc/elements/1.1/"
   xmlns:cc="http://creativecommons.org/ns#"
   xmlns:rdf="http://www.w3.org/1999/02/22-rdf-syntax-ns#"
   xmlns:svg="http://www.w3.org/2000/svg"
   xmlns="http://www.w3.org/2000/svg"
   xmlns:sodipodi="http://sodipodi.sourceforge.net/DTD/sodipodi-0.dtd"
   xmlns:inkscape="http://www.inkscape.org/namespaces/inkscape"
   width="24in"
   height="18in"
   viewBox="0 0 440 330"
   version="1.1"
   id="svg8"
   sodipodi:docname="base.svg"
   inkscape:version="0.92.4 (5da689c313, 2019-01-14)">
  <sodipodi:namedview
     pagecolor="#ffffff"
     bordercolor="#666666"
     borderopacity="1"
     objecttolerance="10"
     gridtolerance="10"
     guidetolerance="10"
     inkscape:pageopacity="0"
     inkscape:pageshadow="2"
     inkscape:window-width="1920"
     inkscape:window-height="1017"
     id="namedview8"
     showgrid="false"
     inkscape:zoom="0.49917265"
     inkscape:cx="1460.131"
     inkscape:cy="933.98767"
     inkscape:window-x="-8"
     inkscape:window-y="-8"
     inkscape:window-maximized="1"
     inkscape:current-layer="svg8"
     inkscape:document-units="in" />
  <defs
     id="defs2" />
  <metadata
     id="metadata5">
    <rdf:RDF>
      <cc:Work
         rdf:about="">
        <dc:format>image/svg+xml</dc:format>
        <dc:type
           rdf:resource="http://purl.org/dc/dcmitype/StillImage" />
        <dc:title />
      </cc:Work>
    </rdf:RDF>
  </metadata>
<g id="overall" transform="translate(0, 0) scale(1, 1)"><line x1="0" y1="0" x2="0" y2="9.164" style="fill:none;stroke:#000000;stroke-width:0.0127"></line><line x1="6.872999999999999" y1="0" x2="6.872999999999999" y2="9.164" style="fill:none;stroke:#000000;stroke-width:0.0127"></line><line x1="13.745999999999999" y1="0" x2="13.745999999999999" y2="9.164" style="fill:none;stroke:#000000;stroke-width:0.0127"></line><line x1="20.619" y1="0" x2="20.619" y2="9.164" style="fill:none;stroke:#000000;stroke-width:0.0127"></line><line x1="27.491999999999997" y1="0" x2="27.491999999999997" y2="9.164" style="fill:none;stroke:#000000;stroke-width:0.0127"></line><line x1="34.364999999999995" y1="0" x2="34.364999999999995" y2="9.164" style="fill:none;stroke:#000000;stroke-width:0.0127"></line><line x1="41.238" y1="0" x2="41.238" y2="9.164" style="fill:none;stroke:#000000;stroke-width:0.0127"></line><line x1="48.111" y1="0" x2="48.111" y2="9.164" style="fill:none;stroke:#000000;stroke-width:0.0127"></line><line x1="54.983999999999995" y1="0" x2="54.983999999999995" y2="9.164" style="fill:none;stroke:#000000;stroke-width:0.0127"></line><line x1="61.85699999999999" y1="0" x2="61.85699999999999" y2="9.164" style="fill:none;stroke:#000000;stroke-width:0.0127"></line><line x1="68.72999999999999" y1="0" x2="68.72999999999999" y2="9.164" style="fill:none;stroke:#000000;stroke-width:0.0127"></line><line x1="75.603" y1="0" x2="75.603" y2="9.164" style="fill:none;stroke:#000000;stroke-width:0.0127"></line><line x1="82.476" y1="0" x2="82.476" y2="9.164" style="fill:none;stroke:#000000;stroke-width:0.0127"></line><line x1="89.34899999999999" y1="0" x2="89.34899999999999" y2="9.164" style="fill:none;stroke:#000000;stroke-width:0.0127"></line><line x1="96.222" y1="0" x2="96.222" y2="9.164" style="fill:none;stroke:#000000;stroke-width:0.0127"></line><line x1="103.09499999999998" y1="0" x2="103.09499999999998" y2="9.164" style="fill:none;stroke:#000000;stroke-width:0.0127"></line><line x1="109.96799999999999" y1="0" x2="109.96799999999999" y2="9.164" style="fill:none;stroke:#000000;stroke-width:0.0127"></line><line x1="116.841" y1="0" x2="116.841" y2="9.164" style="fill:none;stroke:#000000;stroke-width:0.0127"></line><line x1="123.71399999999998" y1="0" x2="123.71399999999998" y2="9.164" style="fill:none;stroke:#000000;stroke-width:0.0127"></line><line x1="130.587" y1="0" x2="130.587" y2="9.164" style="fill:none;stroke:#000000;stroke-width:0.0127"></line><line x1="137.45999999999998" y1="0" x2="137.45999999999998" y2="9.164" style="fill:none;stroke:#000000;stroke-width:0.0127"></line><line x1="144.333" y1="0" x2="144.333" y2="9.164" style="fill:none;stroke:#000000;stroke-width:0.0127"></line><line x1="151.206" y1="0" x2="151.206" y2="9.164" style="fill:none;stroke:#000000;stroke-width:0.0127"></line><line x1="158.07899999999998" y1="0" x2="158.07899999999998" y2="9.164" style="fill:none;stroke:#000000;stroke-width:0.0127"></line><line x1="164.952" y1="0" x2="164.952" y2="9.164" style="fill:none;stroke:#000000;stroke-width:0.0127"></line><line x1="171.825" y1="0" x2="171.825" y2="9.164" style="fill:none;stroke:#000000;stroke-width:0.0127"></line><line x1="178.69799999999998" y1="0" x2="178.69799999999998" y2="9.164" style="fill:none;stroke:#000000;stroke-width:0.0127"></line><line x1="185.57099999999997" y1="0" x2="185.57099999999997" y2="9.164" style="fill:none;stroke:#000000;stroke-width:0.0127"></line><line x1="192.444" y1="0" x2="192.444" y2="9.164" style="fill:none;stroke:#000000;stroke-width:0.0127"></line><line x1="199.31699999999998" y1="0" x2="199.31699999999998" y2="9.164" style="fill:none;stroke:#000000;stroke-width:0.0127"></line><line x1="206.18999999999997" y1="0" x2="206.18999999999997" y2="9.164" style="fill:none;stroke:#000000;stroke-width:0.0127"></line><line x1="213.063" y1="0" x2="213.063" y2="9.164" style="fill:none;stroke:#000000;stroke-width:0.0127"></line><line x1="219.93599999999998" y1="0" x2="219.93599999999998" y2="9.164" style="fill:none;stroke:#000000;stroke-width:0.0127"></line><line x1="226.80899999999997" y1="0" x2="226.80899999999997" y2="9.164" style="fill:none;stroke:#000000;stroke-width:0.0127"></line><line x1="233.682" y1="0" x2="233.682" y2="9.164" style="fill:none;stroke:#000000;stroke-width:0.0127"></line><line x1="240.55499999999998" y1="0" x2="240.55499999999998" y2="9.164" style="fill:none;stroke:#000000;stroke-width:0.0127"></line><line x1="247.42799999999997" y1="0" x2="247.42799999999997" y2="9.164" style="fill:none;stroke:#000000;stroke-width:0.0127"></line><line x1="254.301" y1="0" x2="254.301" y2="9.164" style="fill:none;stroke:#000000;stroke-width:0.0127"></line><line x1="261.174" y1="0" x2="261.174" y2="9.164" style="fill:none;stroke:#000000;stroke-width:0.0127"></line><line x1="268.04699999999997" y1="0" x2="268.04699999999997" y2="9.164" style="fill:none;stroke:#000000;stroke-width:0.0127"></line><line x1="274.91999999999996" y1="0" x2="274.91999999999996" y2="9.164" style="fill:none;stroke:#000000;stroke-width:0.0127"></line><line x1="281.79299999999995" y1="0" x2="281.79299999999995" y2="9.164" style="fill:none;stroke:#000000;stroke-width:0.0127"></line><line x1="288.666" y1="0" x2="288.666" y2="9.164" style="fill:none;stroke:#000000;stroke-width:0.0127"></line><line x1="295.539" y1="0" x2="295.539" y2="9.164" style="fill:none;stroke:#000000;stroke-width:0.0127"></line><line x1="302.412" y1="0" x2="302.412" y2="9.164" style="fill:none;stroke:#000000;stroke-width:0.0127"></line><line x1="309.28499999999997" y1="0" x2="309.28499999999997" y2="9.164" style="fill:none;stroke:#000000;stroke-width:0.0127"></line><line x1="316.15799999999996" y1="0" x2="316.15799999999996" y2="9.164" style="fill:none;stroke:#000000;stroke-width:0.0127"></line><line x1="323.03099999999995" y1="0" x2="323.03099999999995" y2="9.164" style="fill:none;stroke:#000000;stroke-width:0.0127"></line><line x1="329.904" y1="0" x2="329.904" y2="9.164" style="fill:none;stroke:#000000;stroke-width:0.0127"></line><line x1="336.777" y1="0" x2="336.777" y2="9.164" style="fill:none;stroke:#000000;stroke-width:0.0127"></line></g>
</svg>
